<?xml version="1.0" standalone="no"?>
<!DOCTYPE svg PUBLIC "-//W3C//DTD SVG 20010904//EN"
 "http://www.w3.org/TR/2001/REC-SVG-20010904/DTD/svg10.dtd">
<svg version="1.0" xmlns="http://www.w3.org/2000/svg"
 width="3968.000000pt" height="3648.000000pt" viewBox="0 0 3968.000000 3648.000000"
 preserveAspectRatio="xMidYMid meet">

<g transform="translate(0.000000,3648.000000) scale(0.100000,-0.100000)"
fill="#000000" stroke="none">
<path d="M18328 34263 c46 -2 118 -2 160 0 42 1 5 3 -83 3 -88 0 -123 -2 -77
-3z"/>
<path d="M10395 34251 c-44 -3 231 -5 610 -3 380 1 706 4 725 6 19 1 -255 3
-610 2 -355 0 -681 -2 -725 -5z"/>
<path d="M21578 34253 c171 -2 453 -2 625 0 171 1 31 2 -313 2 -344 0 -484 -1
-312 -2z"/>
<path d="M13143 34243 c185 -2 489 -2 675 0 185 1 33 2 -338 2 -371 0 -523 -1
-337 -2z"/>
<path d="M14168 34243 c7 -3 16 -2 19 1 4 3 -2 6 -13 5 -11 0 -14 -3 -6 -6z"/>
<path d="M34890 29385 c0 -5 5 -17 10 -25 5 -8 10 -10 10 -5 0 6 -5 17 -10 25
-5 8 -10 11 -10 5z"/>
<path d="M35200 28565 c4 -20 12 -40 16 -43 10 -10 -5 61 -15 71 -6 6 -6 -6
-1 -28z"/>
<path d="M35240 28440 c0 -8 5 -22 10 -30 9 -13 10 -13 10 0 0 8 -5 22 -10 30
-9 13 -10 13 -10 0z"/>
<path d="M35281 28323 c-1 -12 4 -25 9 -28 12 -7 12 2 0 30 -8 19 -9 19 -9 -2z"/>
<path d="M19211 28152 c-24 -186 -56 -345 -111 -547 -32 -115 -74 -293 -94
-395 -47 -233 -83 -378 -152 -603 -30 -99 -54 -184 -54 -190 1 -18 22 22 31
57 4 17 14 51 23 76 8 25 24 79 37 120 12 41 28 94 36 116 8 23 18 64 23 90 5
27 22 97 38 157 17 59 33 133 37 165 3 31 15 86 26 122 36 116 49 163 74 275
14 61 30 126 35 145 5 19 14 54 20 76 11 46 47 97 61 88 5 -3 18 -22 29 -42
20 -36 20 -36 15 -7 -18 104 -37 240 -42 303 -3 40 -9 75 -13 77 -5 3 -13 -34
-19 -83z"/>
<path d="M35361 28044 c0 -11 3 -14 6 -6 3 7 2 16 -1 19 -3 4 -6 -2 -5 -13z"/>
<path d="M35401 27874 c0 -11 3 -14 6 -6 3 7 2 16 -1 19 -3 4 -6 -2 -5 -13z"/>
<path d="M35432 27745 c0 -11 4 -33 8 -50 l8 -30 0 30 c0 17 -3 39 -8 50 l-9
20 1 -20z"/>
<path d="M35477 27475 c3 -33 7 -62 9 -64 8 -8 2 74 -7 99 -5 16 -6 4 -2 -35z"/>
<path d="M35492 27370 c0 -19 2 -27 5 -17 2 9 2 25 0 35 -3 9 -5 1 -5 -18z"/>
<path d="M35507 27235 c10 -162 23 -220 18 -80 -2 66 -9 134 -14 150 -7 22 -8
3 -4 -70z"/>
<path d="M35533 26985 c0 -22 2 -30 4 -17 2 12 2 30 0 40 -3 9 -5 -1 -4 -23z"/>
<path d="M35541 26834 c0 -11 3 -14 6 -6 3 7 2 16 -1 19 -3 4 -6 -2 -5 -13z"/>
<path d="M35554 25128 c0 -909 -5 -3496 -12 -5748 -7 -2431 -9 -4188 -4 -4325
5 -126 10 -822 12 -1545 1 -723 5 -1376 9 -1450 3 -74 8 2430 9 5565 2 3135 5
5725 7 5755 2 30 4 647 4 1370 1 1186 -8 2013 -22 2026 -3 3 -4 -739 -3 -1648z"/>
<path d="M18762 26299 c-18 -56 -31 -104 -28 -107 3 -2 8 4 11 14 4 10 15 42
25 69 17 48 35 125 28 125 -2 0 -18 -45 -36 -101z"/>
<path d="M18686 26062 c-16 -48 -31 -94 -34 -102 -3 -9 -1 -11 4 -7 10 10 40
91 55 151 18 70 3 47 -25 -42z"/>
<path d="M18602 25826 c-18 -45 -32 -87 -32 -92 1 -20 30 31 30 52 0 13 4 26
10 29 10 6 34 84 27 91 -2 2 -18 -34 -35 -80z"/>
<path d="M18536 25653 c-90 -241 -127 -346 -122 -350 3 -3 10 7 17 23 6 16 20
48 30 72 10 23 19 49 19 58 0 14 10 41 60 164 20 48 33 100 26 100 -2 0 -16
-30 -30 -67z"/>
<path d="M18335 25118 c-145 -370 -235 -568 -470 -1033 -159 -315 -315 -578
-597 -1005 -85 -129 -161 -246 -168 -259 -7 -14 -51 -75 -97 -135 -103 -135
-252 -335 -273 -366 -8 -13 -24 -35 -36 -49 -11 -14 -35 -47 -52 -73 -33 -48
-121 -152 -242 -288 -180 -201 -264 -299 -269 -313 -5 -16 8 -3 130 138 57 66
107 122 110 125 9 7 156 178 221 257 31 37 120 154 199 258 78 105 171 228
207 275 71 94 428 631 538 807 75 122 74 121 182 310 40 70 77 135 82 143 12
20 212 424 255 515 62 130 115 246 115 252 0 7 35 85 61 135 10 20 19 42 19
49 0 6 9 31 20 55 11 24 29 64 40 88 11 24 20 51 20 60 0 9 9 33 20 53 11 21
20 45 20 55 0 9 4 20 10 23 5 3 14 24 20 46 24 87 0 42 -65 -123z"/>
<path d="M2773 24780 c0 -36 2 -50 4 -32 2 17 2 47 0 65 -2 17 -4 3 -4 -33z"/>
<path d="M2767 24695 c-9 -22 -2 -5793 7 -5803 3 -3 7 138 8 314 1 175 3 389
5 474 6 253 6 992 2 2860 -4 1819 -8 2190 -22 2155z"/>
<path d="M16072 21535 c-45 -49 -61 -72 -44 -62 12 8 96 107 89 107 -2 0 -22
-20 -45 -45z"/>
<path d="M15935 21388 l-70 -73 73 70 c67 64 77 75 69 75 -1 0 -34 -33 -72
-72z"/>
<path d="M12960 19240 c-9 -6 -10 -10 -3 -10 6 0 15 5 18 10 8 12 4 12 -15 0z"/>
<path d="M12710 19120 c-8 -5 -10 -10 -5 -10 6 0 17 5 25 10 8 5 11 10 5 10
-5 0 -17 -5 -25 -10z"/>
<path d="M12555 19050 c-16 -7 -17 -9 -3 -9 9 -1 20 4 23 9 7 11 7 11 -20 0z"/>
<path d="M12470 19010 c-9 -6 -10 -10 -3 -10 6 0 15 5 18 10 8 12 4 12 -15 0z"/>
<path d="M12295 18935 c-16 -7 -23 -14 -14 -14 8 -1 24 6 35 14 24 18 18 18
-21 0z"/>
<path d="M12205 18895 c-25 -12 -26 -14 -5 -9 14 4 29 10 35 15 12 12 5 11
-30 -6z"/>
<path d="M12125 18860 c-16 -7 -17 -9 -3 -9 9 -1 20 4 23 9 7 11 7 11 -20 0z"/>
<path d="M2773 18795 c0 -38 2 -53 4 -32 2 20 2 52 0 70 -2 17 -4 1 -4 -38z"/>
<path d="M12033 18820 c-13 -5 -23 -12 -23 -15 0 -9 16 -5 36 10 22 16 19 18
-13 5z"/>
<path d="M2772 18615 c0 -16 2 -22 5 -12 2 9 2 23 0 30 -3 6 -5 -1 -5 -18z"/>
<path d="M2772 18555 c0 -16 2 -22 5 -12 2 9 2 23 0 30 -3 6 -5 -1 -5 -18z"/>
<path d="M2771 18435 c-2 -16 -4 -1501 -6 -3300 -3 -2958 0 -3545 20 -3840 8
-117 14 -281 15 -393 0 -62 4 -111 9 -108 4 3 8 25 8 48 0 24 4 250 8 503 10
617 12 2073 2 2575 -4 223 -9 603 -10 845 -1 242 -6 446 -11 454 -7 10 -5 12
3 6 10 -6 11 -3 3 12 -7 12 -7 24 0 37 8 14 8 17 -2 11 -9 -6 -9 -3 -1 12 6
11 7 23 4 27 -4 4 -7 23 -8 44 -1 21 -4 42 -8 48 -3 6 -3 14 1 18 9 9 10 276
1 276 -7 0 -2 56 6 77 2 7 0 15 -6 18 -5 4 -6 11 -3 17 7 12 7 96 -1 378 -9
302 -9 433 -1 990 4 278 8 519 8 535 1 144 -26 772 -31 710z"/>
<path d="M28814 18104 c-5 -1 -22 -5 -38 -9 -57 -12 -9 -20 89 -15 55 4 91 8
80 9 -11 1 -43 6 -71 10 -28 4 -55 6 -60 5z"/>
<path d="M28940 18041 c8 -6 23 -11 33 -11 10 0 28 -11 40 -23 30 -32 61 -36
169 -22 l93 12 -45 13 c-90 25 -317 50 -290 31z"/>
<path d="M9680 17960 c-18 -12 -2 -12 25 0 13 6 15 9 5 9 -8 0 -22 -4 -30 -9z"/>
<path d="M9438 17883 c7 -3 16 -2 19 1 4 3 -2 6 -13 5 -11 0 -14 -3 -6 -6z"/>
<path d="M9330 17858 c-19 -5 -73 -21 -120 -36 -76 -23 -82 -26 -55 -32 24 -5
106 -5 169 -1 5 1 3 7 -3 15 -9 11 -3 19 31 39 45 27 38 32 -22 15z"/>
<path d="M9083 17783 c9 -2 23 -2 30 0 6 3 -1 5 -18 5 -16 0 -22 -2 -12 -5z"/>
<path d="M17766 11877 c3 -10 9 -15 12 -12 3 3 0 11 -7 18 -10 9 -11 8 -5 -6z"/>
<path d="M35561 11814 c0 -11 3 -14 6 -6 3 7 2 16 -1 19 -3 4 -6 -2 -5 -13z"/>
<path d="M35562 11770 c0 -14 2 -19 5 -12 2 6 2 18 0 25 -3 6 -5 1 -5 -13z"/>
<path d="M17886 11657 c3 -10 9 -15 12 -12 3 3 0 11 -7 18 -10 9 -11 8 -5 -6z"/>
<path d="M17921 11590 c14 -31 19 -36 19 -24 0 6 -7 19 -16 30 -14 18 -14 18
-3 -6z"/>
<path d="M18460 10375 c0 -5 5 -17 10 -25 5 -8 10 -10 10 -5 0 6 -5 17 -10 25
-5 8 -10 11 -10 5z"/>
<path d="M18541 10140 c0 -8 4 -22 9 -30 12 -18 12 -2 0 25 -6 13 -9 15 -9 5z"/>
<path d="M18621 9904 c0 -11 3 -14 6 -6 3 7 2 16 -1 19 -3 4 -6 -2 -5 -13z"/>
<path d="M18681 9720 c0 -3 6 -25 13 -50 8 -25 15 -36 15 -25 0 17 -26 88 -28
75z"/>
<path d="M35552 9417 c0 -91 2 -112 8 -82 12 54 12 192 1 199 -5 3 -9 -47 -9
-117z"/>
<path d="M18771 9440 c0 -8 4 -24 9 -35 5 -13 9 -14 9 -5 0 8 -4 24 -9 35 -5
13 -9 14 -9 5z"/>
<path d="M35516 8893 c-4 -38 -9 -88 -12 -113 -3 -37 -3 -41 6 -21 11 26 27
201 18 201 -3 0 -9 -30 -12 -67z"/>
<path d="M19011 8714 c0 -11 3 -14 6 -6 3 7 2 16 -1 19 -3 4 -6 -2 -5 -13z"/>
<path d="M35480 8603 c-3 -23 -2 -39 3 -34 5 5 7 24 5 42 -3 33 -4 33 -8 -8z"/>
<path d="M19051 8564 c0 -11 3 -14 6 -6 3 7 2 16 -1 19 -3 4 -6 -2 -5 -13z"/>
<path d="M19077 8470 c3 -25 9 -49 14 -54 13 -15 10 24 -6 64 l-14 35 6 -45z"/>
<path d="M35432 8316 c-7 -37 -11 -70 -8 -73 7 -7 29 101 24 122 -2 11 -9 -11
-16 -49z"/>
<path d="M19148 8214 c-2 -21 -8 -28 -20 -26 -9 1 -19 -5 -22 -15 -7 -27 -10
-136 -3 -153 18 -48 27 -87 32 -143 11 -114 15 -119 35 -55 10 32 23 88 30
125 6 38 18 95 25 128 16 68 11 105 -14 105 -9 0 -26 14 -38 31 l-21 32 -4
-29z"/>
<path d="M35402 8160 c0 -19 2 -27 5 -17 2 9 2 25 0 35 -3 9 -5 1 -5 -18z"/>
<path d="M35362 7989 c-1 -9 -5 -32 -8 -50 -4 -28 -3 -31 6 -16 6 9 9 32 7 50
-2 17 -5 25 -5 16z"/>
<path d="M35321 7803 c1 -34 2 -35 9 -13 11 36 11 50 0 50 -5 0 -10 -17 -9
-37z"/>
<path d="M35285 7654 c-4 -16 -11 -44 -15 -62 -5 -18 -5 -30 0 -27 10 6 33
106 26 113 -3 2 -8 -9 -11 -24z"/>
<path d="M35247 7517 c-4 -10 -7 -26 -7 -35 1 -15 2 -15 11 1 6 10 9 25 7 35
-3 16 -4 15 -11 -1z"/>
<path d="M35203 7364 c-17 -56 -16 -75 3 -41 8 15 14 40 12 55 -3 24 -4 23
-15 -14z"/>
<path d="M35167 7257 c-4 -10 -7 -28 -7 -40 1 -20 2 -20 11 -4 6 10 9 28 7 40
-3 20 -4 20 -11 4z"/>
<path d="M35122 7102 c-8 -24 -11 -46 -9 -48 8 -8 29 54 25 73 -2 11 -8 2 -16
-25z"/>
<path d="M35091 7011 c-8 -17 -11 -34 -8 -38 8 -7 29 46 24 60 -2 6 -9 -4 -16
-22z"/>
<path d="M35046 6874 c-4 -14 -5 -29 -2 -31 3 -3 8 7 12 21 3 15 4 29 1 32 -2
3 -8 -7 -11 -22z"/>
<path d="M35012 6781 c-6 -17 -7 -31 -3 -31 8 0 22 52 16 58 -1 2 -7 -11 -13
-27z"/>
<path d="M34971 6671 c-8 -17 -11 -34 -8 -38 8 -7 29 46 24 60 -2 6 -9 -4 -16
-22z"/>
<path d="M34935 6580 c-4 -12 -5 -24 -2 -27 3 -2 8 5 12 17 4 12 5 24 2 27 -3
2 -8 -5 -12 -17z"/>
<path d="M34891 6472 c-8 -18 -11 -35 -8 -38 8 -9 29 35 25 54 -2 12 -8 7 -17
-16z"/>
<path d="M34860 6401 c-12 -24 -13 -44 -1 -37 8 5 22 56 15 56 -2 0 -8 -9 -14
-19z"/>
<path d="M34812 6285 c-7 -15 -11 -30 -8 -32 7 -7 28 36 24 49 -2 6 -9 -2 -16
-17z"/>
<path d="M34780 6221 c0 -5 -3 -17 -7 -27 -4 -11 -3 -15 4 -11 14 9 24 47 12
47 -5 0 -9 -4 -9 -9z"/>
<path d="M34737 6121 c-4 -17 -3 -21 5 -13 5 5 8 16 6 23 -3 8 -7 3 -11 -10z"/>
<path d="M34700 6055 c0 -8 2 -15 4 -15 2 0 6 7 10 15 3 8 1 15 -4 15 -6 0
-10 -7 -10 -15z"/>
<path d="M34657 5970 c-3 -11 -1 -20 4 -20 5 0 9 9 9 20 0 11 -2 20 -4 20 -2
0 -6 -9 -9 -20z"/>
<path d="M34581 5813 c-10 -26 -10 -27 4 -9 8 11 15 23 15 28 0 15 -7 8 -19
-19z"/>
<path d="M3931 5754 c0 -11 3 -14 6 -6 3 7 2 16 -1 19 -3 4 -6 -2 -5 -13z"/>
<path d="M34546 5753 c-6 -14 -5 -15 5 -6 7 7 10 15 7 18 -3 3 -9 -2 -12 -12z"/>
<path d="M3960 5702 c0 -12 6 -25 14 -28 8 -3 18 -18 21 -33 3 -15 20 -50 38
-77 18 -27 45 -74 61 -104 16 -30 35 -59 42 -63 8 -4 14 -13 14 -19 0 -15 51
-90 67 -101 7 -4 13 -13 13 -19 0 -13 153 -243 171 -258 3 -3 46 -63 94 -135
48 -71 107 -155 131 -185 46 -59 99 -134 190 -269 164 -242 439 -505 866 -828
80 -61 193 -147 250 -191 177 -136 761 -520 888 -584 28 -14 177 -98 227 -128
78 -46 166 -93 263 -141 58 -28 112 -55 120 -60 8 -5 26 -14 40 -20 14 -6 42
-20 63 -31 21 -11 41 -17 44 -14 8 8 18 2 -132 77 -210 106 -374 198 -545 305
-30 19 -89 55 -130 79 -481 290 -845 551 -1103 792 -64 61 -144 132 -176 159
-130 107 -527 522 -722 754 -124 147 -201 251 -344 468 -68 103 -131 190 -146
202 -4 3 -23 32 -44 65 -21 33 -41 62 -45 65 -4 3 -19 32 -34 65 -15 32 -39
75 -54 94 -15 19 -31 42 -37 52 -5 9 -25 34 -43 55 -17 22 -39 48 -47 59 -14
20 -14 20 -15 -3z"/>
<path d="M34507 5693 c-4 -3 -7 -13 -7 -22 1 -13 3 -13 11 2 11 19 8 33 -4 20z"/>
<path d="M34350 5425 c-7 -9 -10 -18 -7 -21 3 -3 10 4 17 15 13 25 8 27 -10 6z"/>
<path d="M34310 5369 c0 -5 5 -7 10 -4 6 3 10 8 10 11 0 2 -4 4 -10 4 -5 0
-10 -5 -10 -11z"/>
<path d="M34254 5289 c-16 -22 -45 -62 -64 -87 -19 -26 -55 -76 -79 -112 -39
-56 -54 -77 -99 -135 -4 -5 -19 -26 -32 -45 -14 -19 -33 -45 -44 -57 -11 -13
-17 -26 -13 -29 6 -7 56 45 57 59 0 4 17 30 38 57 20 26 51 68 67 91 17 23 45
63 64 88 66 88 143 202 139 207 -3 2 -18 -15 -34 -37z"/>
<path d="M33763 4643 c-28 -32 -75 -84 -104 -115 -30 -31 -70 -76 -89 -99 -19
-23 -48 -56 -63 -72 -16 -16 -26 -31 -23 -34 6 -6 193 192 247 262 5 5 26 30
49 55 35 40 48 60 36 60 -1 0 -26 -26 -53 -57z"/>
<path d="M33450 4295 c-8 -9 -8 -15 -2 -15 12 0 26 19 19 26 -2 2 -10 -2 -17
-11z"/>
<path d="M33288 4138 c-74 -73 -170 -166 -214 -206 -43 -41 -99 -93 -124 -116
-25 -23 -55 -49 -67 -57 -12 -9 -55 -45 -95 -81 -143 -128 -178 -157 -279
-235 -56 -43 -111 -85 -123 -93 -11 -8 -57 -44 -101 -80 -98 -79 -87 -70 -164
-128 -34 -26 -82 -62 -105 -80 -22 -17 -79 -58 -126 -89 -93 -63 -93 -63 -177
-112 -32 -18 -96 -59 -143 -91 -94 -63 -135 -89 -165 -106 -11 -6 -50 -30 -87
-52 -37 -23 -96 -56 -130 -74 -35 -18 -65 -35 -68 -38 -13 -13 -271 -140 -285
-140 -8 0 -15 -4 -15 -10 0 -5 -4 -10 -10 -10 -5 0 -39 -13 -75 -30 -36 -17
-72 -30 -79 -30 -8 0 -16 -4 -18 -8 -3 -9 -156 -62 -177 -62 -6 0 -46 -17 -89
-37 -42 -20 -88 -39 -102 -41 -13 -2 -29 -7 -35 -11 -5 -5 -27 -14 -48 -21
-20 -6 -35 -16 -32 -21 4 -5 -3 -9 -14 -9 -11 0 -23 -4 -26 -10 -3 -6 -17 -10
-31 -10 -13 0 -24 -4 -24 -8 0 -9 -59 -32 -83 -32 -9 0 -17 -4 -17 -9 0 -5
-22 -14 -50 -21 -27 -7 -50 -16 -50 -20 0 -4 -17 -11 -37 -14 -59 -11 -74 -17
-68 -27 7 -10 3 -11 -70 -14 -27 -2 -115 -24 -195 -49 -199 -64 -419 -107
-715 -141 -77 -9 -167 -20 -200 -25 -33 -5 -89 -12 -125 -15 -36 -4 -121 -13
-190 -21 -184 -21 -616 -29 -1525 -28 -870 0 -1255 5 -1255 16 0 3 -12 3 -27
-1 -16 -4 -43 -4 -60 0 -18 4 -33 4 -33 0 0 -3 -57 -6 -127 -6 -71 0 -204 -1
-298 -3 -93 -2 -433 -4 -755 -4 -322 0 -666 -1 -765 -4 -99 -2 -398 -6 -665
-9 -267 -3 -606 -7 -755 -11 -148 -3 -373 -4 -500 -3 -646 5 -942 4 -957 -3
-9 -5 -19 -4 -22 0 -2 4 -51 7 -108 6 -57 -2 -206 -5 -333 -9 -266 -6 -427 -6
-540 1 -44 3 -98 5 -120 4 -22 -1 -44 -2 -50 -2 -27 2 -155 34 -190 48 -22 9
-41 15 -43 14 -1 -1 -15 1 -31 5 -42 9 -66 41 -96 130 -15 44 -30 87 -33 95
-3 8 -6 21 -8 27 -9 46 -44 93 -44 61 -1 -8 -6 -6 -14 4 -7 10 -17 14 -21 10
-5 -4 -5 -1 -1 6 4 7 12 10 17 7 5 -4 9 -2 9 4 0 17 -22 24 -31 10 -7 -11 -11
-10 -23 6 -19 24 -20 39 -3 29 10 -6 10 -4 0 7 -10 10 -16 10 -25 1 -9 -9 -7
-16 10 -32 27 -25 28 -40 3 -33 -10 2 -18 12 -17 21 1 15 -8 18 -44 13 -5 0
-10 -11 -10 -23 0 -12 -3 -18 -7 -14 -10 9 -13 36 -4 36 4 0 7 9 8 19 2 19 1
19 -18 0 -11 -11 -24 -17 -30 -14 -13 9 0 27 14 19 7 -4 9 -4 5 1 -4 4 -3 17
3 28 8 14 8 18 0 12 -14 -8 -43 13 -35 26 3 5 -7 9 -23 9 -19 0 -24 -3 -15 -9
10 -6 8 -10 -8 -14 -19 -5 -22 -11 -18 -37 3 -17 0 -34 -5 -37 -6 -4 -7 -1 -2
8 8 12 6 12 -8 0 -16 -13 -16 -16 -2 -37 8 -13 15 -27 15 -31 0 -4 -4 -2 -9 6
-5 8 -17 16 -26 17 -9 1 -19 5 -23 8 -3 4 -17 -4 -30 -16 l-24 -23 6 25 c3 14
3 19 0 12 -3 -6 -10 -10 -15 -6 -5 3 -9 2 -8 -3 4 -22 -2 -32 -16 -27 -13 5
-13 9 -3 23 9 11 6 10 -9 -3 -13 -10 -20 -24 -16 -30 4 -6 -1 -5 -10 3 -9 7
-14 17 -11 22 3 5 3 9 0 9 -3 0 -13 -15 -21 -32 -8 -18 -13 -24 -12 -14 1 10
-4 21 -12 24 -8 2 -11 0 -7 -6 4 -6 -2 -8 -14 -5 -11 3 -17 9 -14 14 3 5 1 9
-5 9 -5 0 -13 -5 -16 -10 -10 -16 -27 0 -20 19 5 12 3 13 -6 4 -6 -6 -18 -9
-27 -6 -12 5 -14 1 -10 -15 4 -12 1 -25 -4 -29 -6 -3 -8 -1 -5 4 12 19 -22 23
-35 5 -15 -19 -38 -27 -38 -12 0 6 6 10 13 10 6 0 4 5 -6 11 -9 5 -22 7 -28 4
-5 -4 -16 -2 -23 4 -15 13 -73 4 -83 -12 -4 -6 0 -8 11 -4 11 4 15 3 11 -4 -9
-14 -30 -6 -30 12 0 8 -6 15 -12 15 -7 1 -14 2 -15 4 -9 7 -37 7 -33 0 3 -5
-7 -8 -22 -7 -16 2 -33 -4 -40 -13 -8 -10 -12 -11 -13 -3 0 7 -7 10 -15 7 -8
-4 -17 1 -21 10 -8 20 -24 21 -24 2 0 -8 -7 -17 -16 -20 -8 -3 -12 -2 -9 4 3
5 -3 14 -14 19 -15 8 -20 7 -25 -5 -3 -8 -2 -12 3 -9 5 3 12 1 15 -4 3 -5 -3
-11 -14 -14 -11 -3 -18 -1 -15 3 9 15 -27 42 -50 38 -15 -3 -22 0 -21 10 0 8
-4 17 -11 19 -7 3 -10 -3 -6 -15 3 -12 -2 -22 -13 -26 -14 -5 -15 -4 -5 8 9
11 9 16 0 22 -8 5 -9 3 -4 -6 6 -10 4 -12 -8 -7 -10 3 -17 2 -17 -3 0 -6 -7
-10 -15 -10 -8 0 -15 4 -15 9 0 14 -28 7 -50 -12 -13 -11 -20 -12 -23 -4 -3 9
-10 9 -26 -1 -18 -10 -22 -10 -27 2 -5 12 -10 12 -35 -2 -23 -14 -32 -15 -49
-4 -23 14 -33 16 -26 3 11 -17 -19 -18 -32 -2 -11 13 -13 13 -9 1 3 -11 -3
-15 -27 -13 -17 1 -31 2 -31 3 0 1 -11 3 -24 4 -23 3 -23 2 -5 -12 18 -14 18
-14 -6 -8 -14 3 -28 6 -32 6 -5 0 -8 8 -9 18 0 12 -3 11 -10 -7 -8 -19 -12
-21 -24 -11 -12 10 -15 9 -15 -4 0 -9 -5 -16 -11 -16 -6 0 -9 6 -6 13 3 8 -1
14 -9 14 -8 0 -14 -6 -14 -14 0 -10 -5 -11 -19 -3 -27 14 -34 13 -27 -6 4 -12
2 -15 -9 -11 -8 4 -17 2 -20 -3 -4 -7 -13 -6 -26 0 -18 10 -23 6 -20 -13 2
-13 -30 -20 -42 -8 -14 14 -40 15 -32 1 10 -17 -59 -7 -72 10 -10 13 -11 12
-7 -6 3 -12 0 -25 -7 -29 -8 -5 -10 -4 -5 3 8 13 8 13 -46 17 -23 2 -35 -1
-32 -7 4 -6 -3 -5 -15 1 -16 9 -21 9 -21 -1 -1 -8 -6 -6 -14 5 -12 16 -15 16
-29 2 -12 -11 -17 -12 -20 -2 -3 9 -7 9 -17 0 -16 -15 -50 1 -50 22 0 8 -5 15
-11 15 -5 0 -8 -4 -4 -9 3 -5 1 -12 -5 -16 -5 -3 -10 0 -10 7 0 9 -3 9 -8 2
-9 -14 -45 -14 -54 0 -5 8 -8 7 -8 -1 0 -19 -27 -16 -34 4 -5 12 -9 14 -18 5
-17 -17 -28 -15 -28 6 0 10 -3 13 -8 7 -6 -10 -23 -12 -37 -5 -3 1 -9 4 -15 5
-5 1 -11 3 -12 5 -2 1 -13 3 -25 4 -16 2 -20 -1 -13 -9 5 -6 5 -16 -2 -25 -8
-13 -9 -12 -5 2 3 9 -1 19 -9 22 -8 3 -14 1 -14 -5 0 -6 -5 -7 -10 -4 -6 4 -7
11 -4 17 5 7 2 8 -5 4 -7 -5 -10 -14 -8 -20 3 -7 -1 -13 -9 -13 -8 0 -14 4
-14 9 0 4 -5 8 -11 8 -5 0 -7 -5 -4 -10 8 -13 -1 -13 -24 -1 -12 7 -26 5 -45
-5 -35 -17 -42 -18 -28 -1 7 8 7 18 2 27 -7 12 -11 10 -18 -9 -5 -15 -11 -20
-16 -13 -4 6 -14 8 -24 5 -16 -6 -16 -6 1 11 15 15 16 36 1 36 -3 0 -2 -4 1
-10 6 -10 -7 -14 -34 -10 -8 1 -18 -4 -23 -12 -8 -10 -9 -9 -5 4 3 9 -1 19 -9
22 -11 4 -13 -1 -10 -22 l5 -27 -18 24 c-17 22 -18 22 -25 5 -6 -15 -9 -16
-16 -4 -5 8 -6 18 -4 22 3 4 1 8 -5 8 -16 0 -22 -18 -9 -23 9 -4 9 -6 1 -6 -6
-1 -20 7 -29 17 -17 16 -18 16 -11 0 8 -21 -12 -24 -32 -6 -8 7 -11 9 -9 3 3
-5 -1 -16 -10 -24 -13 -13 -14 -12 -8 12 4 17 2 27 -4 27 -6 0 -8 -4 -5 -10
13 -22 -98 -32 -118 -10 -10 10 -9 11 2 5 10 -6 12 -4 6 5 -6 10 -10 10 -20
-3 -12 -17 -28 -11 -39 13 -4 9 -5 6 -2 -6 3 -19 -1 -22 -30 -22 -19 0 -37 5
-41 11 -4 6 -1 7 7 2 9 -5 11 -4 6 3 -11 18 -23 14 -29 -8 -5 -19 -20 -20 -61
-4 -12 4 -17 4 -13 -2 3 -6 -15 -8 -49 -4 -30 3 -54 3 -54 0 0 -3 -20 -5 -45
-5 -25 0 -45 3 -45 6 0 3 -11 4 -25 1 -14 -2 -25 -7 -25 -11 0 -3 -20 -7 -45
-8 -25 -1 -43 1 -41 6 3 4 -1 8 -9 8 -8 0 -11 -5 -8 -10 3 -6 -9 -8 -31 -5
-20 2 -36 1 -36 -2 0 -4 -7 -7 -15 -7 -8 0 -15 4 -15 9 0 4 -18 6 -41 3 -28
-4 -38 -2 -34 6 5 8 2 8 -11 1 -25 -12 -93 -9 -102 5 -4 6 -19 9 -35 6 -18 -4
-24 -8 -17 -13 8 -5 9 -10 2 -14 -6 -3 -17 1 -25 9 -19 18 -33 19 -43 3 -5 -7
-2 -8 7 -3 8 4 5 -1 -6 -12 -14 -15 -25 -18 -37 -12 -24 13 -28 11 -28 -8 0
-15 -2 -16 -10 -3 -8 12 -10 12 -10 1 0 -11 -5 -10 -20 4 -11 10 -17 23 -13
29 4 7 1 6 -8 -1 -12 -10 -18 -10 -29 0 -10 10 -12 8 -7 -12 l6 -23 -25 23
c-13 12 -27 19 -31 16 -3 -4 -12 -2 -19 4 -8 7 -14 6 -20 -2 -4 -8 -3 -9 4 -5
14 8 15 -3 3 -22 -7 -11 -9 -10 -15 3 -4 12 -10 14 -23 7 -11 -7 -21 -6 -31 4
-7 8 -18 11 -23 8 -17 -10 -89 -13 -95 -3 -3 5 -10 9 -15 9 -6 0 -7 -4 -4 -10
3 -5 0 -7 -9 -4 -23 9 -127 10 -132 2 -8 -13 -24 -9 -24 6 0 8 -7 16 -15 20
-9 3 -15 0 -15 -8 0 -11 -8 -12 -35 -6 -22 5 -35 4 -35 -2 0 -6 -6 -5 -15 2
-8 7 -15 8 -15 3 0 -6 -21 -8 -51 -5 -37 3 -54 1 -61 -9 -7 -10 -8 -8 -3 8 5
18 3 22 -10 17 -9 -4 -14 -12 -12 -19 3 -6 -1 -12 -9 -12 -13 0 -18 10 -15 29
0 4 -6 5 -14 2 -8 -4 -15 -10 -15 -16 0 -5 -4 -6 -10 -3 -5 3 -15 3 -22 -1
-20 -13 -68 -13 -62 0 3 6 -2 2 -10 -8 -9 -11 -19 -17 -22 -13 -4 3 -13 0 -21
-8 -12 -13 -18 -13 -44 1 -24 12 -34 13 -45 3 -8 -6 -14 -8 -14 -4 0 4 -6 3
-13 -3 -8 -7 -18 -7 -27 -2 -9 6 -18 3 -27 -8 -12 -16 -12 -15 -6 2 5 17 3 18
-28 12 -19 -4 -42 -7 -51 -7 -10 0 -18 -5 -18 -11 0 -6 -7 -5 -17 3 -11 10
-14 10 -9 2 4 -7 2 -13 -3 -13 -6 0 -11 4 -11 9 0 5 -11 8 -25 7 -14 0 -25 -4
-25 -8 0 -5 -8 -8 -17 -8 -15 0 -16 2 -3 10 21 13 -29 7 -55 -7 -12 -7 -27 -8
-36 -3 -8 5 -21 5 -28 1 -7 -5 -28 -5 -47 -1 -22 5 -35 4 -37 -4 -3 -7 -11 -3
-22 9 -9 11 -14 14 -10 8 4 -9 -2 -13 -20 -13 -14 0 -24 -4 -21 -8 2 -4 -4 -9
-15 -9 -13 -1 -17 2 -12 10 5 8 2 8 -9 -1 -12 -10 -18 -9 -28 3 -11 14 -14 13
-26 -2 -7 -10 -14 -14 -14 -9 0 5 -7 3 -15 -4 -12 -10 -15 -9 -15 5 0 12 -5
15 -16 11 -9 -3 -20 -6 -26 -6 -6 0 -8 -7 -4 -15 6 -17 -9 -21 -19 -5 -3 5
-11 10 -16 10 -6 0 -8 -4 -5 -9 6 -9 -19 -9 -29 0 -2 3 -32 4 -65 3 -51 -3
-60 0 -60 14 -1 15 -2 15 -11 -1 -8 -14 -14 -15 -24 -7 -9 8 -14 6 -19 -6 -5
-13 -9 -14 -20 -5 -10 9 -16 9 -21 1 -5 -8 -11 -7 -23 2 -12 10 -16 10 -19 1
-6 -16 -33 -17 -33 -2 0 8 -4 8 -13 2 -6 -6 -37 -9 -67 -8 -30 2 -63 -1 -73
-7 -9 -5 -17 -5 -17 0 0 4 -9 8 -20 9 -11 1 -20 -4 -20 -10 0 -8 -3 -8 -8 -2
-9 13 -35 18 -27 5 3 -5 -1 -10 -9 -10 -9 0 -16 5 -16 12 0 6 -8 4 -19 -6 -12
-11 -21 -14 -26 -7 -3 6 -17 11 -30 11 -13 0 -26 6 -29 13 -4 6 -5 3 -3 -8 3
-16 -1 -20 -20 -19 -14 0 -28 6 -33 13 -5 9 -10 9 -14 3 -3 -6 -17 -9 -31 -7
-14 1 -28 -1 -30 -5 -2 -4 -16 -5 -31 -2 -16 3 -29 -1 -35 -9 -5 -8 -9 -9 -9
-3 0 6 -10 10 -22 9 -13 -1 -26 3 -30 9 -5 7 -8 7 -8 -2 0 -7 -4 -11 -9 -7 -5
3 -12 1 -16 -5 -3 -5 -11 -10 -16 -10 -6 0 -7 6 -3 13 6 8 3 8 -9 -1 -9 -8
-21 -11 -27 -7 -6 4 -18 1 -27 -7 -15 -11 -16 -11 -10 5 4 10 3 16 -2 12 -5
-3 -12 1 -14 7 -3 8 -6 6 -6 -4 -1 -11 -6 -15 -16 -12 -8 4 -22 1 -30 -6 -12
-10 -15 -10 -15 1 0 9 -3 10 -8 4 -4 -5 -24 -10 -44 -10 -20 1 -35 -2 -32 -6
2 -5 -21 -8 -53 -9 -32 0 -88 -2 -125 -3 -41 -2 -69 1 -72 8 -3 6 -5 5 -5 -2
-1 -7 -7 -10 -15 -7 -8 3 -17 1 -20 -5 -4 -6 -13 -8 -21 -4 -8 3 -15 1 -15 -4
0 -8 -18 -12 -55 -13 -98 -1 -215 -8 -230 -14 -7 -2 -15 -2 -18 1 -3 3 -37 6
-74 7 -37 1 -74 5 -80 9 -7 5 -13 4 -13 -1 0 -6 -66 -8 -167 -6 -201 4 -421 5
-483 1 -25 -2 -51 1 -57 6 -7 5 -13 6 -13 1 0 -5 -14 -9 -31 -10 -20 -1 -26 2
-17 7 10 7 9 9 -4 9 -10 0 -18 -3 -18 -7 0 -12 -191 -7 -222 6 -29 11 -58 6
-58 -11 0 -8 -203 -5 -340 4 -29 2 -34 -4 -16 -17 11 -8 27 -15 35 -15 9 0 48
-9 86 -21 39 -11 99 -29 135 -40 36 -11 81 -19 100 -19 20 0 62 -7 94 -15 75
-20 239 -42 434 -60 85 -8 179 -19 210 -24 31 -6 152 -15 267 -21 116 -6 253
-15 305 -20 91 -9 580 -24 1345 -40 464 -10 2128 -4 2665 10 618 16 4185 28
5435 19 2593 -20 5399 -27 6295 -16 756 8 991 14 1155 28 66 5 181 14 255 18
74 5 173 17 220 26 47 9 168 30 270 47 285 46 332 55 385 71 28 8 86 22 130
32 74 16 183 45 295 80 25 7 79 23 120 35 41 11 89 27 106 35 18 7 73 28 124
46 51 17 105 38 119 45 14 8 33 14 41 14 9 0 24 6 35 14 11 7 36 18 55 24 19
6 60 20 90 32 30 13 75 30 100 39 25 9 50 19 55 23 6 3 42 18 80 33 39 15 88
35 110 45 22 10 85 37 140 60 55 23 132 56 170 75 39 18 97 45 130 59 33 15
67 31 75 36 8 5 65 34 125 64 157 80 341 185 510 291 39 25 80 49 92 54 12 6
44 25 70 43 27 18 56 38 65 43 9 6 37 25 62 43 26 17 49 32 51 32 5 0 158 104
195 132 14 10 48 36 75 57 345 261 654 531 974 852 249 249 257 257 249 264
-2 3 -65 -55 -140 -127z m-14574 -2056 c2 -4 -4 -9 -15 -9 -10 -1 -19 2 -19 8
0 11 27 12 34 1z m-554 -128 c0 -2 -7 -4 -15 -4 -8 0 -15 4 -15 10 0 5 7 7 15
4 8 -4 15 -8 15 -10z m160 6 c0 -5 -4 -10 -10 -10 -5 0 -10 5 -10 10 0 6 5 10
10 10 6 0 10 -4 10 -10z m-140 -20 c-12 -23 -16 -24 -26 -8 -4 6 -3 8 3 5 6
-4 13 0 17 8 3 8 8 15 11 15 3 0 1 -9 -5 -20z m-1995 -30 c3 -5 1 -10 -4 -10
-6 0 -11 5 -11 10 0 6 2 10 4 10 3 0 8 -4 11 -10z m-2585 -36 c0 -2 -9 0 -20
6 -11 6 -20 13 -20 16 0 2 9 0 20 -6 11 -6 20 -13 20 -16z m2994 0 c3 -8 2
-12 -4 -9 -6 3 -10 10 -10 16 0 14 7 11 14 -7z"/>
<path d="M7594 2402 c3 -6 23 -16 44 -23 20 -6 70 -27 111 -46 41 -18 79 -32
85 -29 6 2 -2 9 -19 15 -16 7 -48 21 -71 32 -22 10 -44 19 -49 19 -5 0 -16 6
-24 14 -20 17 -86 33 -77 18z"/>
<path d="M7874 2275 c11 -8 31 -15 45 -15 34 0 15 16 -29 24 -33 7 -34 6 -16
-9z"/>
<path d="M7985 2230 c3 -5 13 -10 21 -10 8 0 14 5 14 10 0 6 -9 10 -21 10 -11
0 -17 -4 -14 -10z"/>
<path d="M8058 2198 c6 -6 18 -8 28 -6 14 3 12 5 -9 10 -19 3 -25 2 -19 -4z"/>
<path d="M18736 2175 c-3 -8 -1 -15 4 -15 6 0 10 7 10 15 0 8 -2 15 -4 15 -2
0 -6 -7 -10 -15z"/>
<path d="M18655 2171 c-12 -11 -3 -31 13 -30 10 0 12 3 5 6 -20 7 -15 19 8 20
14 1 19 -3 15 -13 -4 -9 1 -14 15 -14 11 0 18 -4 14 -9 -3 -5 -2 -12 3 -15 4
-2 9 4 9 15 1 10 -4 19 -12 19 -7 0 -15 6 -18 14 -5 13 -42 18 -52 7z"/>
<path d="M8158 2153 c6 -2 18 -2 25 0 6 3 1 5 -13 5 -14 0 -19 -2 -12 -5z"/>
<path d="M18605 2100 c3 -5 8 -10 11 -10 2 0 4 5 4 10 0 6 -5 10 -11 10 -5 0
-7 -4 -4 -10z"/>
<path d="M8348 2073 c7 -3 16 -2 19 1 4 3 -2 6 -13 5 -11 0 -14 -3 -6 -6z"/>
<path d="M8448 2033 c7 -3 16 -2 19 1 4 3 -2 6 -13 5 -11 0 -14 -3 -6 -6z"/>
<path d="M17460 1991 c0 -7 -5 -9 -12 -5 -7 5 -8 3 -3 -5 5 -9 10 -10 18 -2 6
6 8 14 4 18 -4 3 -7 1 -7 -6z"/>
<path d="M17910 1980 c-8 -5 -10 -10 -5 -10 6 0 17 5 25 10 8 5 11 10 5 10 -5
0 -17 -5 -25 -10z"/>
<path d="M18225 1980 c-3 -5 -1 -10 4 -10 6 0 11 5 11 10 0 6 -2 10 -4 10 -3
0 -8 -4 -11 -10z"/>
<path d="M8636 1963 c20 -15 68 -18 60 -4 -3 5 -22 11 -42 13 -32 4 -34 3 -18
-9z"/>
<path d="M16086 1954 c-4 -9 -4 -19 -1 -22 2 -3 7 3 11 12 4 9 4 19 1 22 -2 3
-7 -3 -11 -12z"/>
<path d="M15715 1950 c3 -5 8 -10 11 -10 2 0 4 5 4 10 0 6 -5 10 -11 10 -5 0
-7 -4 -4 -10z"/>
<path d="M16140 1950 c0 -5 5 -10 11 -10 5 0 7 5 4 10 -3 6 -8 10 -11 10 -2 0
-4 -4 -4 -10z"/>
<path d="M17030 1940 c0 -5 5 -10 11 -10 5 0 7 5 4 10 -3 6 -8 10 -11 10 -2 0
-4 -4 -4 -10z"/>
<path d="M8754 1925 c11 -8 29 -15 40 -15 12 -1 32 -7 46 -15 14 -8 39 -14 55
-14 25 1 22 3 -20 16 -27 9 -52 19 -55 23 -3 4 -23 10 -45 13 -37 6 -38 5 -21
-8z"/>
<path d="M16973 1926 c1 -11 9 -21 17 -23 10 -3 11 -2 4 4 -6 4 -14 15 -17 23
-5 11 -6 9 -4 -4z"/>
<path d="M16636 1914 c-4 -9 -4 -19 -1 -22 2 -3 7 3 11 12 4 9 4 19 1 22 -2 3
-7 -3 -11 -12z"/>
<path d="M12935 1880 c-3 -6 1 -7 9 -4 18 7 21 14 7 14 -6 0 -13 -4 -16 -10z"/>
<path d="M8960 1857 c0 -14 28 -27 63 -27 9 0 17 4 17 9 0 9 -8 12 -62 27 -11
3 -18 0 -18 -9z"/>
<path d="M9080 1810 c0 -5 12 -10 28 -10 21 0 24 2 12 10 -20 13 -40 13 -40 0z"/>
<path d="M9180 1770 c20 -13 83 -13 75 0 -3 6 -25 10 -48 10 -31 0 -38 -3 -27
-10z"/>
</g>
</svg>
